<svg width="256" height="256" viewBox="0 0 42 42" fill="none" xmlns="http://www.w3.org/2000/svg">
<mask id="mask0" style="mask-type:alpha" maskUnits="userSpaceOnUse" x="0" y="0" width="42" height="42">
<path d="M8 21C8 21 12.6429 14 21 14C29.3571 14 34 21 34 21C34 21 29.3571 28 21 28C12.6429 28 8 21 8 21Z" stroke="white" stroke-width="2" stroke-linecap="round" stroke-linejoin="round"/>
<path d="M23.5 1H1V41H41V26.5V18.5M27 1H41M41 1V15M41 1L27 15" stroke="white" stroke-width="2" stroke-linecap="round" stroke-linejoin="round"/>
</mask>
<g mask="url(#mask0)">
<g filter="url(#filter0_b)">
<rect x="-27" y="20.6746" width="67.4221" height="67.4221" transform="rotate(-45 -27 20.6746)" fill="url(#paint0_linear)"/>
</g>
</g>
<defs>
<filter id="filter0_b" x="-31" y="-31" width="103.349" height="103.349" filterUnits="userSpaceOnUse" color-interpolation-filters="sRGB">
<feFlood flood-opacity="0" result="BackgroundImageFix"/>
<feGaussianBlur in="BackgroundImage" stdDeviation="2"/>
<feComposite in2="SourceAlpha" operator="in" result="effect1_backgroundBlur"/>
<feBlend mode="normal" in="SourceGraphic" in2="effect1_backgroundBlur" result="shape"/>
</filter>
<linearGradient id="paint0_linear" x1="6.71105" y1="20.6746" x2="6.71105" y2="88.0967" gradientUnits="userSpaceOnUse">
<stop stop-color="#BF953F"/>
<stop offset="0.286458" stop-color="#FCF6BA"/>
<stop offset="0.572917" stop-color="#B38728"/>
<stop offset="0.791667" stop-color="#FBF5B7"/>
<stop offset="1" stop-color="#AA771C"/>
</linearGradient>
</defs>
</svg>
