<?xml version="1.0" standalone="no"?>
<!DOCTYPE svg PUBLIC "-//W3C//DTD SVG 20010904//EN"
 "http://www.w3.org/TR/2001/REC-SVG-20010904/DTD/svg10.dtd">
<svg version="1.0" xmlns="http://www.w3.org/2000/svg"
 width="512.000000pt" height="512.000000pt" viewBox="0 0 512.000000 512.000000"
 preserveAspectRatio="xMidYMid meet">
<metadata>
Created by potrace 1.14, written by Peter Selinger 2001-2017
</metadata>
<g transform="translate(0.000000,512.000000) scale(0.100000,-0.100000)"
fill="#000000" stroke="none">
<path d="M0 3470 c0 -995 4 -1650 9 -1650 29 0 41 17 52 71 6 32 15 56 20 53
5 -3 9 0 9 5 0 6 -4 11 -10 11 -16 0 -12 36 6 50 18 16 48 80 45 98 -3 19 27
62 43 62 7 0 21 9 31 20 10 11 25 20 34 20 14 1 14 2 -1 11 -11 6 -15 16 -11
27 11 30 46 72 60 72 16 0 17 16 3 25 -13 8 40 51 57 47 15 -3 18 15 3 20 -6
2 3 17 21 33 18 17 28 24 24 16 -6 -10 -4 -12 4 -7 7 5 10 14 7 22 -6 17 10
28 49 31 16 1 31 7 33 12 7 20 20 11 15 -9 -3 -11 -9 -20 -14 -20 -11 0 -40
-56 -32 -63 7 -7 101 41 163 82 25 17 49 31 53 31 4 0 51 -25 104 -56 190
-109 609 -282 851 -349 46 -13 111 -33 145 -45 68 -24 341 -47 412 -35 38 7
387 26 450 25 114 -2 684 42 705 55 3 2 43 6 90 10 47 3 112 13 145 21 37 10
104 15 175 15 90 0 135 5 205 23 50 13 140 34 200 46 183 36 234 50 310 81 62
26 79 39 114 86 23 31 46 73 53 95 10 34 15 39 35 34 13 -3 34 -9 48 -12 15
-4 25 -2 25 4 0 18 -42 42 -72 42 -26 0 -28 3 -28 40 0 23 -7 54 -15 70 -14
27 -14 30 5 43 12 8 23 24 25 37 2 12 12 29 22 37 10 8 12 12 6 8 -7 -3 -13
-2 -13 4 0 5 8 12 18 14 12 3 13 5 2 6 -10 1 -20 19 -27 49 -6 27 -22 70 -35
98 l-23 49 22 44 c12 24 24 49 27 55 3 7 8 6 16 -4 10 -13 11 -12 6 4 -4 10
-4 33 0 51 5 26 12 34 36 39 17 3 27 10 23 16 -4 7 6 9 29 7 20 -2 37 1 40 7
3 7 8 6 15 -4 8 -11 11 -11 11 -2 0 9 5 10 18 4 9 -5 27 -8 39 -7 12 1 24 -4
27 -11 3 -7 14 -12 25 -11 23 1 29 17 7 17 -8 0 -16 4 -18 10 -4 11 -69 23
-123 22 -47 -1 -95 -17 -95 -32 0 -5 -7 -10 -16 -10 -11 0 -14 5 -10 16 3 9 6
22 6 30 0 10 8 12 32 7 25 -5 29 -3 23 8 -7 11 -6 12 6 3 24 -17 189 -3 189
17 0 18 -33 25 -83 18 -72 -10 -97 -10 -97 0 0 5 6 8 13 8 6 -1 29 3 50 7 l38
8 -28 15 c-24 12 -29 12 -39 -1 -6 -9 -19 -16 -28 -16 -9 0 -16 -4 -16 -8 0
-4 -11 -9 -24 -10 -20 -1 -24 4 -30 39 -4 23 -13 53 -21 69 -12 24 -12 33 2
78 15 47 15 58 -1 152 -18 111 -69 255 -118 335 -152 248 -411 459 -729 594
-68 29 -128 57 -134 62 -5 5 -22 9 -37 9 -15 0 -74 13 -131 30 -199 57 -513
109 -742 122 l-50 3 -1 43 -1 43 61 -6 c117 -12 332 -47 469 -76 141 -31 167
-32 167 -4 0 8 5 15 10 15 6 0 9 15 8 33 -3 26 0 31 15 29 10 -2 17 3 17 13 0
8 5 14 12 12 7 -1 13 8 14 21 2 33 22 51 34 32 6 -9 10 -10 10 -3 0 6 -4 15
-10 18 -22 13 -8 25 28 24 20 -1 55 6 77 14 22 9 50 16 61 17 12 0 24 6 27 13
3 8 25 12 70 10 57 -2 68 1 92 22 l26 25 -580 0 -579 0 10 -28 c10 -25 7 -36
-22 -88 l-34 -58 -23 53 c-20 45 -22 59 -13 84 5 16 10 32 10 33 0 2 -605 4
-1345 4 l-1345 0 0 -1650z m2690 1400 c0 -25 -5 -40 -12 -40 -7 -1 -124 -3
-260 -4 -136 -2 -264 -7 -285 -10 -21 -3 -65 -8 -98 -11 -435 -43 -855 -196
-1125 -410 -36 -29 -77 -58 -92 -66 -15 -8 -26 -17 -25 -20 1 -4 -23 -34 -53
-67 -83 -92 -122 -140 -150 -183 -14 -21 -36 -43 -50 -48 -24 -9 -24 -9 -2
-10 22 -1 22 -2 6 -26 -9 -14 -24 -25 -33 -26 -12 0 -11 -2 4 -9 11 -5 15 -9
9 -9 -6 -1 -11 -7 -12 -13 0 -7 -9 -37 -19 -65 -13 -39 -23 -53 -38 -54 -18
-1 -18 -2 -1 -6 14 -4 17 -11 12 -35 -3 -17 -6 -37 -6 -45 0 -9 -5 -11 -12 -7
-10 6 -10 5 -1 -7 13 -16 6 -33 -17 -42 -12 -4 -11 -6 3 -6 12 -1 17 -9 17
-31 0 -17 -5 -30 -12 -30 -10 0 -9 -3 1 -9 7 -5 11 -13 8 -17 -3 -5 3 -26 13
-47 l18 -37 -31 -9 -32 -9 37 -1 c47 -1 61 -20 16 -22 -29 -2 -30 -3 -6 -6 29
-5 46 -32 26 -45 -12 -7 -4 -12 14 -9 9 1 28 -56 21 -63 -4 -3 -1 -6 5 -6 7 0
12 -6 12 -13 0 -7 18 -31 40 -52 22 -21 40 -44 40 -50 0 -5 -5 -2 -11 8 -5 9
-15 17 -22 17 -21 0 -97 72 -123 115 -30 52 -30 63 -1 76 20 9 20 9 -6 4 -23
-5 -29 -1 -37 21 -9 22 -23 131 -22 169 4 186 44 312 156 494 18 30 42 62 52
70 11 9 25 28 33 43 24 46 241 247 315 292 17 10 40 26 51 36 30 27 238 133
340 173 187 74 359 116 660 162 134 20 314 32 508 34 l177 1 0 -40z m90 -110
c333 -23 556 -64 815 -151 285 -95 512 -216 652 -346 173 -160 273 -301 328
-463 26 -75 49 -203 43 -237 l-3 -22 -1015 -6 c-558 -3 -1035 -8 -1060 -10
-63 -6 -2022 -7 -2027 -1 -14 13 0 164 21 249 57 224 188 411 399 570 381 288
858 421 1527 425 96 1 240 -3 320 -8z m2040 -1400 c0 -5 -5 -10 -11 -10 -5 0
-7 5 -4 10 3 6 8 10 11 10 2 0 4 -4 4 -10z m-80 -40 c0 -5 -8 -10 -17 -10 -15
0 -16 2 -3 10 19 12 20 12 20 0z m150 -10 c-8 -5 -22 -9 -30 -9 -10 0 -8 3 5
9 27 12 43 12 25 0z m-288 -238 c-6 -2 -22 -12 -35 -22 l-24 -19 20 -63 c11
-35 24 -72 28 -83 21 -54 20 -63 -11 -99 -17 -19 -41 -38 -53 -42 -12 -3 -51
-19 -87 -34 -36 -16 -101 -38 -145 -50 -44 -12 -94 -30 -111 -40 -45 -29 -258
-48 -314 -30 -36 12 -45 11 -76 -3 -27 -13 -64 -17 -169 -17 -117 0 -135 2
-144 18 -6 9 -11 11 -11 5 0 -15 -60 -18 -60 -3 0 7 -53 9 -155 6 -91 -3 -155
-1 -155 4 0 5 -7 7 -15 4 -8 -4 -26 1 -40 10 -16 10 -34 14 -50 10 -22 -5 -25
-3 -26 22 0 25 -2 26 -9 9 -12 -31 17 -54 85 -66 33 -6 69 -13 80 -15 27 -5
51 -21 43 -29 -3 -4 -41 -15 -84 -26 -156 -39 -226 -93 -293 -227 -69 -138
-113 -174 -230 -192 -62 -10 -80 -9 -124 5 -95 31 -145 89 -197 226 -39 106
-134 183 -269 219 -53 14 -45 25 35 46 32 8 63 19 68 24 5 5 0 7 -13 3 -17 -4
-21 -1 -21 17 0 28 -24 21 -28 -8 -3 -17 -12 -22 -60 -26 -76 -8 -158 -22
-207 -35 -22 -6 -102 -14 -177 -17 l-136 -7 -32 27 c-31 26 -40 26 -71 -1 -13
-11 -38 -11 -139 -3 -127 11 -144 15 -135 30 7 11 -19 20 -58 20 -45 0 -221
47 -225 60 -2 5 -15 10 -28 10 -38 0 -94 27 -94 45 0 9 -4 14 -9 10 -20 -12
-20 14 0 28 l21 15 -23 4 c-20 2 -24 9 -24 36 0 17 -3 32 -6 32 -20 0 7 40 34
51 29 12 30 13 9 22 -29 13 -28 20 7 47 17 12 34 35 40 51 12 36 25 36 104 0
83 -38 118 -47 252 -65 190 -26 1008 -76 1248 -76 204 0 567 18 717 36 69 8
247 19 395 24 491 17 735 39 970 85 66 13 143 33 170 44 34 13 51 16 54 8 2
-6 -1 -13 -7 -15z"/>
<path d="M1047 4536 c-54 -27 -73 -42 -39 -31 29 8 111 55 97 55 -5 -1 -32
-11 -58 -24z"/>
<path d="M860 4410 c-9 -6 -10 -10 -3 -10 6 0 15 5 18 10 8 12 4 12 -15 0z"/>
<path d="M650 4200 c-9 -6 -10 -10 -3 -10 6 0 15 5 18 10 8 12 4 12 -15 0z"/>
<path d="M979 3903 c-13 -16 -12 -17 4 -4 9 7 17 15 17 17 0 8 -8 3 -21 -13z"/>
<path d="M720 2970 c6 -11 16 -17 22 -14 8 5 9 1 5 -10 -4 -10 -1 -18 6 -20 6
-2 31 -9 55 -15 25 -7 42 -18 42 -26 0 -8 5 -15 10 -15 6 0 10 5 10 10 0 16
27 12 34 -5 3 -8 15 -15 26 -15 12 0 18 5 15 10 -9 14 23 13 97 -4 59 -13 205
-29 256 -27 12 0 22 -3 22 -7 0 -4 37 -5 82 -3 80 4 75 5 -102 22 -102 9 -238
24 -303 33 -65 9 -122 14 -127 11 -4 -3 -10 1 -13 8 -2 6 -22 18 -43 26 -22 8
-41 17 -44 20 -3 4 -18 15 -33 24 -28 18 -28 18 -17 -3z"/>
<path d="M4400 2960 c0 -5 5 -10 10 -10 6 0 10 5 10 10 0 6 -4 10 -10 10 -5 0
-10 -4 -10 -10z"/>
<path d="M4368 2953 c7 -3 16 -2 19 1 4 3 -2 6 -13 5 -11 0 -14 -3 -6 -6z"/>
<path d="M4300 2941 c-24 -7 -24 -8 7 -12 18 -3 30 -2 27 2 -2 4 2 10 8 12 20
8 -13 6 -42 -2z"/>
<path d="M4210 2921 c-24 -6 -24 -7 -9 -23 16 -15 17 -15 22 2 3 10 15 20 28
23 18 3 19 4 4 4 -11 1 -31 -2 -45 -6z"/>
<path d="M4111 2893 c21 -28 23 -29 15 -9 -4 13 -2 17 7 13 8 -3 20 -1 28 4
10 6 2 9 -25 9 -35 0 -37 -2 -25 -17z"/>
<path d="M3974 2893 c10 -11 36 -12 36 -2 0 5 -10 9 -22 9 -12 0 -18 -3 -14
-7z"/>
<path d="M4031 2883 c7 -8 15 -10 18 -6 4 4 10 11 14 14 4 4 -4 7 -18 7 -21 0
-23 -3 -14 -15z"/>
<path d="M4342 2880 c0 -14 2 -19 5 -12 2 6 2 18 0 25 -3 6 -5 1 -5 -13z"/>
<path d="M3890 2883 c8 -3 18 -11 22 -17 5 -7 8 -7 8 3 0 8 6 11 16 7 8 -3 12
-2 9 4 -3 6 -21 10 -38 9 -18 0 -25 -3 -17 -6z"/>
<path d="M4458 2883 c7 -3 16 -2 19 1 4 3 -2 6 -13 5 -11 0 -14 -3 -6 -6z"/>
<path d="M3568 2873 c6 -2 18 -2 25 0 6 3 1 5 -13 5 -14 0 -19 -2 -12 -5z"/>
<path d="M3237 2863 c-4 -3 -4 -10 -1 -14 7 -12 54 -11 54 0 0 5 32 10 71 10
39 0 74 2 76 5 3 3 -40 5 -95 5 -54 0 -102 -2 -105 -6z"/>
<path d="M3472 2840 c25 -34 30 -37 21 -12 -8 23 -24 42 -35 42 -5 0 1 -13 14
-30z"/>
<path d="M3153 2842 c-21 -3 -33 -21 -15 -23 4 0 19 -2 35 -4 15 -2 27 0 27 4
0 15 -25 27 -47 23z"/>
<path d="M3640 2830 c0 -5 5 -10 10 -10 6 0 10 5 10 10 0 6 -4 10 -10 10 -5 0
-10 -4 -10 -10z"/>
<path d="M1502 2825 c8 -8 176 -10 184 -2 4 4 -37 7 -91 7 -54 0 -96 -2 -93
-5z"/>
<path d="M1710 2818 c0 -10 57 -10 64 0 2 4 -11 7 -30 7 -19 0 -34 -3 -34 -7z"/>
<path d="M4497 2823 c-4 -3 -7 -11 -7 -17 0 -6 5 -5 12 2 6 6 9 14 7 17 -3 3
-9 2 -12 -2z"/>
<path d="M1790 2809 c0 -5 5 -7 10 -4 6 3 10 8 10 11 0 2 -4 4 -10 4 -5 0 -10
-5 -10 -11z"/>
<path d="M1820 2816 c0 -9 30 -14 35 -6 4 6 -3 10 -14 10 -12 0 -21 -2 -21 -4z"/>
<path d="M1884 2811 c3 -5 17 -8 31 -8 14 0 25 3 25 8 0 5 -14 9 -31 9 -16 0
-28 -4 -25 -9z"/>
<path d="M3055 2795 c0 -30 10 -32 24 -6 8 15 7 20 -5 25 -9 3 -16 6 -17 6 -1
0 -2 -11 -2 -25z"/>
<path d="M1968 2803 c6 -2 18 -2 25 0 6 3 1 5 -13 5 -14 0 -19 -2 -12 -5z"/>
<path d="M3421 2794 c0 -11 3 -14 6 -6 3 7 2 16 -1 19 -3 4 -6 -2 -5 -13z"/>
<path d="M3975 2800 c3 -5 8 -10 11 -10 2 0 4 5 4 10 0 6 -5 10 -11 10 -5 0
-7 -4 -4 -10z"/>
<path d="M930 2760 c0 -11 5 -20 10 -20 6 0 10 9 10 20 0 11 -4 20 -10 20 -5
0 -10 -9 -10 -20z"/>
<path d="M1680 2765 c0 -8 7 -15 16 -15 14 0 14 3 4 15 -7 8 -14 15 -16 15 -2
0 -4 -7 -4 -15z"/>
<path d="M2103 2773 c16 -3 31 -11 34 -19 8 -21 43 -18 43 5 0 16 -8 18 -52
18 -29 0 -40 -2 -25 -4z"/>
<path d="M4190 2745 c0 -14 5 -25 10 -25 6 0 10 11 10 25 0 14 -4 25 -10 25
-5 0 -10 -11 -10 -25z"/>
<path d="M836 2751 c-4 -7 -5 -15 -2 -18 9 -9 19 4 14 18 -4 11 -6 11 -12 0z"/>
<path d="M1040 2740 c0 -11 5 -20 10 -20 6 0 10 9 10 20 0 11 -4 20 -10 20 -5
0 -10 -9 -10 -20z"/>
<path d="M3285 2750 c-3 -5 1 -10 9 -10 9 0 16 5 16 10 0 6 -4 10 -9 10 -6 0
-13 -4 -16 -10z"/>
<path d="M1420 2736 c0 -8 5 -18 10 -21 6 -3 10 1 10 9 0 8 -4 18 -10 21 -5 3
-10 -1 -10 -9z"/>
<path d="M2984 2714 c0 -30 2 -33 9 -16 5 12 5 26 0 36 -7 12 -9 7 -9 -20z"/>
<path d="M738 2723 c7 -3 16 -2 19 1 4 3 -2 6 -13 5 -11 0 -14 -3 -6 -6z"/>
<path d="M1880 2721 c0 -6 5 -13 10 -16 6 -3 10 1 10 9 0 9 -4 16 -10 16 -5 0
-10 -4 -10 -9z"/>
<path d="M3641 2701 c-1 -24 2 -32 9 -25 7 7 7 19 1 35 -9 23 -10 22 -10 -10z"/>
<path d="M4090 2720 c0 -5 5 -10 10 -10 6 0 10 5 10 10 0 6 -4 10 -10 10 -5 0
-10 -4 -10 -10z"/>
<path d="M1755 2711 c-3 -5 -1 -12 4 -15 5 -3 11 1 15 9 6 16 -9 21 -19 6z"/>
<path d="M4355 2710 c3 -5 8 -10 11 -10 2 0 4 5 4 10 0 6 -5 10 -11 10 -5 0
-7 -4 -4 -10z"/>
<path d="M3536 2695 c-3 -9 0 -15 9 -15 9 0 12 6 9 15 -4 8 -7 15 -9 15 -2 0
-5 -7 -9 -15z"/>
<path d="M3900 2681 c0 -17 5 -31 10 -31 6 0 10 11 10 24 0 14 -4 28 -10 31
-6 4 -10 -7 -10 -24z"/>
<path d="M2123 2683 c-3 -10 -13 -26 -21 -35 -11 -13 -12 -18 -3 -18 15 0 50
40 51 58 0 18 -20 15 -27 -5z"/>
<path d="M1141 2674 c0 -11 3 -14 6 -6 3 7 2 16 -1 19 -3 4 -6 -2 -5 -13z"/>
<path d="M3320 2681 c0 -6 5 -13 10 -16 6 -3 10 1 10 9 0 9 -4 16 -10 16 -5 0
-10 -4 -10 -9z"/>
<path d="M3430 2666 c0 -2 9 -6 20 -9 11 -3 18 -1 14 4 -5 9 -34 13 -34 5z"/>
<path d="M1455 2649 c-10 -15 3 -25 16 -12 7 7 7 13 1 17 -6 3 -14 1 -17 -5z"/>
<path d="M3240 2646 c0 -8 5 -18 10 -21 6 -3 10 3 10 14 0 12 -4 21 -10 21 -5
0 -10 -6 -10 -14z"/>
<path d="M1570 2635 c0 -8 5 -15 10 -15 6 0 10 7 10 15 0 8 -4 15 -10 15 -5 0
-10 -7 -10 -15z"/>
<path d="M3810 2640 c0 -5 5 -10 10 -10 6 0 10 5 10 10 0 6 -4 10 -10 10 -5 0
-10 -4 -10 -10z"/>
<path d="M1670 2620 c0 -5 5 -10 11 -10 5 0 7 5 4 10 -3 6 -8 10 -11 10 -2 0
-4 -4 -4 -10z"/>
<path d="M3948 5113 c6 -2 18 -2 25 0 6 3 1 5 -13 5 -14 0 -19 -2 -12 -5z"/>
<path d="M4400 4240 c20 -13 33 -13 25 0 -3 6 -14 10 -23 10 -15 0 -15 -2 -2
-10z"/>
<path d="M4462 4193 c2 -9 9 -18 16 -21 18 -6 15 25 -4 32 -11 4 -14 1 -12
-11z"/>
<path d="M4680 3486 c0 -2 8 -10 18 -17 15 -13 16 -12 3 4 -13 16 -21 21 -21
13z"/>
<path d="M4886 3398 c3 -4 -9 -5 -26 -2 -23 5 -30 3 -30 -10 0 -9 7 -16 16
-16 19 0 124 30 124 35 0 2 -20 3 -44 2 -25 0 -43 -5 -40 -9z"/>
<path d="M4750 3222 c0 -7 -7 -12 -15 -12 -8 0 -15 -4 -15 -10 0 -5 4 -10 9
-10 13 0 35 29 27 37 -3 3 -6 1 -6 -5z"/>
<path d="M4815 3220 c-3 -5 -1 -10 4 -10 6 0 11 5 11 10 0 6 -2 10 -4 10 -3 0
-8 -4 -11 -10z"/>
<path d="M4690 3200 c0 -5 5 -10 11 -10 5 0 7 5 4 10 -3 6 -8 10 -11 10 -2 0
-4 -4 -4 -10z"/>
<path d="M4791 3194 c0 -11 3 -14 6 -6 3 7 2 16 -1 19 -3 4 -6 -2 -5 -13z"/>
<path d="M4838 3193 c7 -3 16 -2 19 1 4 3 -2 6 -13 5 -11 0 -14 -3 -6 -6z"/>
<path d="M4765 3180 c-3 -5 -1 -10 4 -10 6 0 11 5 11 10 0 6 -2 10 -4 10 -3 0
-8 -4 -11 -10z"/>
<path d="M4725 3170 c-3 -5 -1 -10 4 -10 6 0 11 5 11 10 0 6 -2 10 -4 10 -3 0
-8 -4 -11 -10z"/>
<path d="M4878 3173 c7 -3 16 -2 19 1 4 3 -2 6 -13 5 -11 0 -14 -3 -6 -6z"/>
<path d="M4783 3163 c-13 -2 -23 -11 -23 -19 0 -8 -7 -14 -15 -14 -8 0 -15 -4
-15 -10 0 -5 13 -8 30 -7 17 1 30 8 30 15 0 7 -4 10 -10 7 -5 -3 -10 -1 -10 6
0 16 66 5 86 -15 19 -20 21 -20 21 -1 0 8 -6 15 -12 15 -7 0 -18 7 -25 15 -13
15 -17 16 -57 8z"/>
<path d="M4815 2940 c-3 -5 -1 -10 4 -10 6 0 11 5 11 10 0 6 -2 10 -4 10 -3 0
-8 -4 -11 -10z"/>
<path d="M4750 2930 c0 -5 4 -10 9 -10 6 0 13 5 16 10 3 6 -1 10 -9 10 -9 0
-16 -4 -16 -10z"/>
<path d="M4790 2921 c0 -5 7 -12 16 -15 14 -5 15 -4 4 9 -14 17 -20 19 -20 6z"/>
<path d="M4733 2889 c10 -6 25 -8 34 -5 8 4 23 1 32 -6 14 -12 14 -11 2 5 -8
11 -27 17 -50 17 -30 -1 -33 -2 -18 -11z"/>
<path d="M4746 2765 c25 -19 40 -19 24 0 -7 8 -20 15 -28 15 -13 0 -12 -3 4
-15z"/>
<path d="M411 2303 c-8 -3 17 -21 60 -43 71 -35 74 -38 71 -69 -4 -57 -27 -86
-96 -122 -77 -40 -80 -47 -102 -247 -27 -251 -28 -268 -13 -274 10 -4 15 4 16
26 1 17 5 51 8 75 l7 43 21 -31 c27 -38 73 -61 121 -61 26 0 44 -7 62 -25 35
-35 70 -48 245 -89 305 -70 755 -138 1237 -186 111 -11 214 -23 228 -26 l26
-7 -17 34 c-10 19 -45 72 -80 119 -34 47 -85 122 -114 167 -64 100 -117 149
-214 196 -180 89 -435 145 -787 173 -52 4 -88 9 -80 10 8 2 70 13 138 25 113
20 133 21 235 10 487 -51 874 -81 1065 -81 l32 0 0 -193 c0 -200 3 -217 43
-231 12 -4 26 3 42 18 24 24 24 25 19 192 -3 93 -6 179 -8 192 -3 20 1 22 38
22 147 1 510 23 708 45 128 14 260 27 293 30 150 14 393 62 663 132 97 25 221
54 275 64 60 11 103 24 110 33 8 10 37 18 85 22 71 7 114 27 95 45 -4 4 -55
-3 -113 -17 -101 -23 -173 -42 -455 -117 -154 -42 -412 -100 -440 -100 -11 0
-94 -8 -185 -18 -91 -10 -210 -19 -265 -20 -55 -1 -107 -5 -116 -10 -9 -4 -87
-11 -174 -14 -88 -4 -162 -8 -166 -11 -14 -8 -817 -4 -924 6 -60 5 -204 16
-320 25 -209 15 -294 25 -412 50 -38 8 -63 9 -65 3 -2 -5 -55 -20 -118 -33
-192 -39 -283 -78 -460 -195 -47 -31 -90 -59 -96 -63 -18 -10 45 389 66 424 9
14 128 -13 350 -80 127 -38 194 -51 211 -40 9 5 3 10 -17 14 -16 4 -130 40
-254 81 -391 128 -442 142 -479 127z"/>
<path d="M4506 2041 c-4 -6 -5 -15 -1 -20 6 -10 -13 -26 -30 -26 -5 0 -11 -9
-13 -20 -1 -11 -14 -42 -27 -70 -14 -27 -33 -71 -44 -97 l-20 -48 -73 45
c-140 87 -255 115 -468 115 -276 0 -417 -28 -624 -123 l-117 -53 -40 -78 c-40
-78 -79 -137 -204 -310 -36 -49 -64 -90 -62 -91 6 -5 461 36 662 59 403 47
622 86 865 156 180 51 270 90 343 145 64 50 67 52 67 29 0 -55 -130 -172 -252
-228 -104 -47 -418 -120 -603 -140 -27 -3 -66 -8 -85 -10 -103 -15 -216 -28
-410 -46 -118 -11 -278 -27 -355 -35 -77 -8 -167 -17 -200 -20 -99 -10 -102
-11 -120 -57 -9 -24 -22 -51 -30 -61 -12 -17 -15 -17 -44 -3 -16 9 -50 29 -73
45 -67 45 -143 71 -237 82 -436 49 -549 64 -851 109 -411 62 -582 105 -772
193 -82 38 -97 43 -100 29 -6 -29 21 -69 57 -86 19 -10 35 -20 35 -23 0 -4
-12 -36 -27 -72 -38 -95 -44 -254 -14 -364 67 -244 237 -423 516 -545 61 -26
187 -66 323 -102 l43 -11 -28 -39 c-15 -22 -33 -40 -39 -40 -7 0 -14 -7 -18
-15 -3 -8 -12 -12 -21 -9 -10 4 -15 0 -15 -11 0 -25 -28 -48 -51 -42 -12 3
-18 3 -15 0 3 -3 -3 -13 -13 -22 -10 -9 -21 -28 -24 -42 -7 -28 -47 -48 -47
-23 0 8 -4 14 -10 14 -5 0 -10 -7 -10 -15 0 -16 -27 -20 -49 -6 -7 5 -10 14
-7 20 4 6 0 11 -8 11 -9 0 -16 -7 -16 -15 0 -9 -6 -12 -15 -9 -10 4 -13 14 -9
33 4 21 3 23 -6 9 -6 -9 -17 -15 -25 -12 -10 4 -15 0 -15 -11 0 -9 -6 -15 -12
-12 -7 2 -12 12 -12 21 2 18 -11 22 -21 6 -11 -18 -27 -11 -22 10 6 23 -9 36
-45 38 -18 1 -28 -3 -28 -12 0 -8 -7 -17 -16 -20 -12 -5 -15 -2 -10 10 9 23
-3 37 -20 23 -11 -9 -14 -8 -14 8 0 11 -7 19 -17 20 -10 1 -31 4 -48 8 -16 3
-37 7 -45 8 -8 1 -19 8 -24 16 -7 11 -10 11 -17 0 -6 -10 -9 -11 -9 -1 0 6 -7
12 -15 12 -8 0 -15 5 -15 10 0 6 -8 10 -18 10 -10 0 -22 4 -27 9 -6 5 -21 11
-35 13 -14 2 -24 9 -23 15 3 12 -34 12 -54 0 -6 -4 -14 0 -17 9 -3 9 -13 14
-21 10 -8 -3 -19 3 -24 12 -6 9 -11 12 -11 6 0 -18 -90 -1 -90 18 0 5 -4 6
-10 3 -5 -3 -10 -2 -10 4 0 6 -7 7 -17 4 -9 -4 -14 -2 -10 3 5 8 -14 14 -60
17 -7 0 -13 5 -13 10 0 5 -7 6 -16 3 -11 -4 -18 1 -21 14 -5 20 -7 20 -24 4
-12 -11 -19 -13 -19 -5 0 7 -4 9 -10 6 -5 -3 -10 -1 -10 5 0 7 -8 9 -20 5 -20
-6 -28 9 -10 20 18 11 11 27 -10 22 -15 -4 -21 1 -25 16 -7 29 -16 111 -19
172 -1 28 -6 59 -11 69 -5 11 -4 31 3 49 8 20 8 36 2 48 -6 10 -12 42 -15 71
-2 29 -8 107 -14 173 -5 66 -10 172 -10 235 -1 63 -3 134 -5 158 -12 141 -16
-26 -16 -691 l0 -747 1919 0 1919 0 4 30 c3 16 0 35 -6 41 -8 8 -7 13 2 16 6
3 10 9 6 14 -3 5 4 21 15 36 21 26 21 26 1 40 -26 18 -22 37 20 102 19 30 39
63 45 73 5 10 34 27 62 38 304 113 517 334 579 598 23 95 14 226 -19 315 -18
45 -22 67 -14 67 16 0 89 58 161 128 75 73 110 145 104 213 -4 42 -2 52 15 64
12 9 16 18 11 27 -14 22 -13 39 1 44 8 3 11 13 9 22 -4 11 3 8 17 -8 12 -14
20 -18 17 -9 -5 13 2 15 40 13 47 -3 47 -3 17 10 -16 8 -35 12 -42 9 -7 -3
-13 -1 -13 5 0 5 -9 12 -20 15 -14 3 -20 14 -20 31 0 23 4 26 36 26 28 0 35 4
32 16 -7 35 -373 96 -392 65z m-3661 -686 c190 -59 653 -135 1250 -206 205
-24 376 -50 400 -61 19 -8 25 -19 25 -43 0 -64 84 -102 131 -59 12 10 29 35
39 55 10 19 25 41 33 47 17 15 165 35 447 63 615 59 1064 129 1220 188 52 20
56 20 68 4 7 -10 22 -49 34 -87 28 -92 22 -230 -14 -328 -57 -154 -196 -317
-344 -404 -93 -55 -234 -110 -374 -146 -133 -34 -210 -59 -205 -67 2 -3 -7 -7
-18 -7 -12 -1 -47 -5 -77 -9 -30 -4 -76 -8 -102 -9 -25 0 -44 -4 -42 -7 2 -4
-15 -7 -39 -8 -23 0 -60 -3 -82 -5 -99 -13 -365 -26 -530 -26 -164 1 -510 15
-595 25 -19 2 -80 9 -135 15 -238 25 -395 54 -395 74 0 1 15 1 33 -1 17 -2
-26 12 -98 31 -381 100 -551 204 -693 425 -64 98 -93 202 -94 328 0 102 38
243 66 243 6 0 47 -11 91 -25z m3059 -1019 c-4 -11 -74 -29 -74 -19 0 3 62 31
72 32 4 1 5 -5 2 -13z m-2354 -47 c0 -5 -4 -9 -10 -9 -5 0 -10 7 -10 16 0 8 5
12 10 9 6 -3 10 -10 10 -16z m-566 -180 c-4 -6 -11 -6 -20 2 -21 17 -17 31 6
19 11 -6 18 -15 14 -21z"/>
<path d="M4870 1820 c-9 -6 -10 -10 -3 -10 6 0 15 5 18 10 8 12 4 12 -15 0z"/>
<path d="M230 580 c0 -5 5 -10 11 -10 5 0 7 5 4 10 -3 6 -8 10 -11 10 -2 0 -4
-4 -4 -10z"/>
<path d="M680 280 c0 -5 5 -10 11 -10 5 0 7 5 4 10 -3 6 -8 10 -11 10 -2 0 -4
-4 -4 -10z"/>
</g>
</svg>
